<?xml version="1.0" encoding="UTF-8" standalone="no"?>
<!-- Generator: Adobe Illustrator 19.0.0, SVG Export Plug-In . SVG Version: 6.00 Build 0)  -->

<svg
   version="1.1"
   id="Layer_1"
   x="0px"
   y="0px"
   viewBox="0 0 40 40"
   xml:space="preserve"
   sodipodi:docname="55_Distance.svg"
   width="40"
   height="40"
   inkscape:version="1.1.2 (b8e25be833, 2022-02-05)"
   xmlns:inkscape="http://www.inkscape.org/namespaces/inkscape"
   xmlns:sodipodi="http://sodipodi.sourceforge.net/DTD/sodipodi-0.dtd"
   xmlns="http://www.w3.org/2000/svg"
   xmlns:svg="http://www.w3.org/2000/svg"><defs
   id="defs994" /><sodipodi:namedview
   id="namedview992"
   pagecolor="#ffffff"
   bordercolor="#666666"
   borderopacity="1.0"
   inkscape:pageshadow="2"
   inkscape:pageopacity="0.0"
   inkscape:pagecheckerboard="0"
   showgrid="false"
   width="40px"
   inkscape:zoom="1.1135458"
   inkscape:cx="251"
   inkscape:cy="251"
   inkscape:window-width="1282"
   inkscape:window-height="768"
   inkscape:window-x="1553"
   inkscape:window-y="63"
   inkscape:window-maximized="0"
   inkscape:current-layer="Layer_1" />
<g
   id="g959"
   transform="matrix(0.07968127,0,0,0.09715341,0,-4.3855049)">
	<g
   id="g957">
		<g
   id="g955">
			<path
   d="m 117.253,371.669 c 3.112,0 6.047,-1.449 7.939,-3.919 0.271,-0.354 27.396,-35.857 54.14,-78.162 36.611,-57.913 55.174,-100.707 55.174,-127.194 0,-64.654 -52.6,-117.253 -117.253,-117.253 C 52.6,45.141 0,97.74 0,162.393 c 0,26.487 18.563,69.282 55.174,127.194 26.744,42.305 53.869,77.808 54.14,78.162 1.893,2.471 4.827,3.92 7.939,3.92 z M 20,162.393 c 0,-53.625 43.628,-97.253 97.253,-97.253 53.625,0 97.253,43.628 97.253,97.253 0,42.092 -64.164,137.76 -97.254,182.618 C 84.16,300.158 20,204.504 20,162.393 Z"
   id="path939" />
			<path
   d="m 187.544,162.393 c 0,-38.758 -31.532,-70.291 -70.291,-70.291 -38.759,0 -70.291,31.532 -70.291,70.291 0,38.759 31.532,70.291 70.291,70.291 38.759,0 70.291,-31.532 70.291,-70.291 z m -120.581,0 c 0,-27.73 22.56,-50.291 50.291,-50.291 27.731,0 50.291,22.56 50.291,50.291 0,27.731 -22.56,50.291 -50.291,50.291 -27.731,0 -50.291,-22.56 -50.291,-50.291 z"
   id="path941" />
			<path
   d="m 127.253,132.103 c 0,-5.523 -4.477,-10 -10,-10 -22.216,0 -40.291,18.074 -40.291,40.291 0,5.523 4.477,10 10,10 5.523,0 10,-4.477 10,-10 0,-11.188 9.102,-20.291 20.291,-20.291 5.523,0 10,-4.477 10,-10 z"
   id="path943" />
			<path
   d="m 384.746,45.14 c -64.654,0 -117.253,52.6 -117.253,117.253 0,26.487 18.563,69.282 55.174,127.194 26.744,42.305 53.869,77.808 54.14,78.162 1.892,2.471 4.827,3.919 7.939,3.919 3.112,0 6.047,-1.449 7.939,-3.919 0.271,-0.354 27.396,-35.857 54.141,-78.162 C 483.437,231.675 502,188.881 502,162.393 502,97.74 449.4,45.14 384.746,45.14 Z m 0,299.872 c -33.093,-44.854 -97.253,-140.508 -97.253,-182.619 0,-53.625 43.628,-97.253 97.253,-97.253 53.626,0 97.254,43.628 97.254,97.253 0,42.092 -64.164,137.761 -97.254,182.619 z"
   id="path945" />
			<path
   d="m 384.746,92.103 c -38.758,0 -70.29,31.532 -70.29,70.291 0,38.759 31.532,70.291 70.29,70.291 38.758,0 70.291,-31.532 70.291,-70.291 0,-38.759 -31.533,-70.291 -70.291,-70.291 z m 0,120.581 c -27.73,0 -50.29,-22.56 -50.29,-50.291 0,-27.731 22.56,-50.291 50.29,-50.291 27.73,0 50.291,22.56 50.291,50.291 0,27.731 -22.56,50.291 -50.291,50.291 z"
   id="path947" />
			<path
   d="m 384.15,388.86 c -18.748,0 -34,15.252 -34,34 0,18.748 15.252,34 34,34 18.748,0 34,-15.252 34,-34 0,-18.748 -15.253,-34 -34,-34 z m 0,48 c -7.72,0 -14,-6.28 -14,-14 0,-7.72 6.28,-14 14,-14 7.72,0 14,6.28 14,14 0,7.72 -6.28,14 -14,14 z"
   id="path949" />
			<path
   d="m 323.15,412.86 h -27 c -5.523,0 -10,4.477 -10,10 0,5.523 4.477,10 10,10 h 27 c 5.523,0 10,-4.477 10,-10 0,-5.523 -4.477,-10 -10,-10 z"
   id="path951" />
			<path
   d="M 261.15,412.86 H 149.647 c -4.281,-13.882 -17.229,-24 -32.497,-24 -18.748,0 -34,15.252 -34,34 0,18.748 15.252,34 34,34 15.268,0 28.217,-10.118 32.497,-24 H 261.15 c 5.523,0 10,-4.477 10,-10 0,-5.523 -4.477,-10 -10,-10 z m -144,24 c -7.72,0 -14,-6.28 -14,-14 0,-7.72 6.28,-14 14,-14 7.72,0 14,6.28 14,14 0,7.72 -6.28,14 -14,14 z"
   id="path953" />
		</g>
	</g>
</g>
<g
   id="g961">
</g>
<g
   id="g963">
</g>
<g
   id="g965">
</g>
<g
   id="g967">
</g>
<g
   id="g969">
</g>
<g
   id="g971">
</g>
<g
   id="g973">
</g>
<g
   id="g975">
</g>
<g
   id="g977">
</g>
<g
   id="g979">
</g>
<g
   id="g981">
</g>
<g
   id="g983">
</g>
<g
   id="g985">
</g>
<g
   id="g987">
</g>
<g
   id="g989">
</g>
</svg>
