<?xml version="1.0" encoding="utf-8"?>
<!-- Svg Vector Icons : http://www.onlinewebfonts.com/icon -->
<!DOCTYPE svg PUBLIC "-//W3C//DTD SVG 1.1//EN" "http://www.w3.org/Graphics/SVG/1.1/DTD/svg11.dtd">
<svg version="1.1" xmlns="http://www.w3.org/2000/svg" xmlns:xlink="http://www.w3.org/1999/xlink" x="0px" y="0px" viewBox="0 0 1000 1000" enable-background="new 0 0 1000 1000" xml:space="preserve">
<metadata> Svg Vector Icons : http://www.onlinewebfonts.com/icon </metadata>
<g><path d="M500,233.6c16.8,0,30.6-13.8,30.6-30.6V80.4c0-16.8-13.8-30.6-30.6-30.6c-16.8,0-30.6,13.8-30.6,30.6v122.5C469.4,219.8,483.2,233.6,500,233.6z"/><path d="M775.6,509.2c0,16.8,13.8,30.6,30.6,30.6h122.5c16.8,0,30.6-13.8,30.6-30.6s-13.8-30.6-30.6-30.6H806.3C789.4,478.6,775.6,492.3,775.6,509.2z"/><path d="M71.3,539.8h122.5c16.8,0,30.6-13.8,30.6-30.6s-13.8-30.6-30.6-30.6H71.3c-16.8,0-30.6,13.8-30.6,30.6S54.4,539.8,71.3,539.8z"/><path d="M40.6,692.9h428.8v140.9L429.6,794c-12.3-12.3-30.6-12.3-42.9,0c-12.2,12.3-12.2,30.6,0,42.9L500,950.2l21.4-21.4l0,0l91.9-91.9c12.3-12.3,12.3-30.6,0-42.9s-30.6-12.3-42.9,0l-39.8,39.8V692.9h428.8c16.8,0,30.6-13.8,30.6-30.6s-13.8-30.6-30.6-30.6H40.6c-16.8,0-30.6,13.8-30.6,30.6S23.8,692.9,40.6,692.9z"/><path d="M270.3,322.4c6.1,6.1,13.8,9.2,21.4,9.2s15.3-3.1,21.4-9.2c12.2-12.3,12.2-30.6,0-42.9l-87.3-87.3c-12.3-12.3-30.6-12.3-42.9,0c-12.3,12.3-12.3,30.6,0,42.9L270.3,322.4z"/><path d="M708.3,331.6c7.7,0,15.3-3.1,21.4-9.2l87.3-87.3c12.3-12.3,12.3-30.6,0-42.9c-12.3-12.3-30.6-12.3-42.9,0l-87.3,87.3c-12.3,12.3-12.3,30.6,0,42.9C691.4,328.5,699.1,331.6,708.3,331.6z"/><path d="M297.9,581.2c6.1,15.3,23,24.5,39.8,18.4c15.3-6.1,24.5-23,18.4-39.8c-6.1-16.8-9.2-33.7-9.2-52.1c0-84.2,68.9-153.1,153.1-153.1s153.1,68.9,153.1,153.1c0,18.4-3.1,35.2-9.2,52.1c-6.1,15.3,3.1,33.7,18.4,39.8c3.1,1.5,7.7,1.5,10.7,1.5c12.3,0,24.5-7.7,29.1-19.9c9.2-23,13.8-49,13.8-73.5c0-117.9-96.5-214.4-214.4-214.4c-117.9,0-214.4,96.5-214.4,214.4C285.6,533.7,290.2,558.2,297.9,581.2z"/></g>
</svg>