<?xml version="1.0" encoding="utf-8"?>
<!-- Svg Vector Icons : http://www.onlinewebfonts.com/icon -->
<!DOCTYPE svg PUBLIC "-//W3C//DTD SVG 1.1//EN" "http://www.w3.org/Graphics/SVG/1.1/DTD/svg11.dtd">
<svg version="1.1" xmlns="http://www.w3.org/2000/svg" xmlns:xlink="http://www.w3.org/1999/xlink" x="0px" y="0px" viewBox="0 0 1000 1000" enable-background="new 0 0 1000 1000" xml:space="preserve">
<metadata> Svg Vector Icons : http://www.onlinewebfonts.com/icon </metadata>
<g><path d="M499.8,189.3c46,60.8,148.1,228.4,198,302.5c125.5,209.7-28.1,396-191,402.3c-201.1-4.7-301.7-225.3-227.6-372.6c46.8-88.9,156.7-257.3,220.6-332.9V189.3z M499.8,10c-26.5,42.9-49.1,95.9-74.8,139.5C348.5,279.7,262,391.2,187.2,529.2C88.2,765.4,279.9,993.8,506,990c244.8-3.9,399.9-255.7,305.6-460.7C752.4,401.4,647.9,282.1,569.2,148L499.8,10.8V10z M364.9,573.6c0-19.5,5.5-34.3,15.6-45.2c10.1-10.9,24.2-17.2,41.3-17.2c16.4,0,29.6,5.5,39,15.6c9.4,10.1,14,24.9,14,43.7c0,18.7-5.5,33.5-15.6,45.2c-10.1,11.7-24.2,17.2-40.5,17.2s-28.8-5.5-39-15.6c-9.4-10.9-14.8-24.9-14.8-42.1V573.6z M388.3,572.1c0,13.3,3.1,22.6,8.6,30.4c5.5,7,13.3,10.9,23.4,10.9c10.1,0,17.9-3.9,23.4-10.9c5.5-7,8.6-17.9,8.6-31.2c0-13.3-2.3-23.4-7.8-30.4c-5.5-7-13.3-10.9-22.6-10.9c-10.1,0-17.9,3.9-23.4,10.9c-5.5,7.8-8.6,17.9-8.6,31.2H388.3z M576.2,514.4L425.7,749.8h-24.9l150.5-235.4H576.2L576.2,514.4z M505.2,693.7c0-19.5,5.5-34.3,15.6-46c10.1-11.7,24.2-17.2,41.3-17.2c16.4,0,29.6,5.5,39,15.6c9.4,10.1,14,24.9,14,43.7c0,18.7-5.5,33.5-15.6,44.4c-10.1,11.7-24.2,17.1-40.5,17.1c-16.4,0-28.8-5.5-39-16.4c-9.4-10.9-14-24.9-14-42.1L505.2,693.7z M528.6,692.1c0,12.5,3.1,22.6,8.6,29.6c5.5,7,13.3,10.9,23.4,10.9c10.1,0,17.9-3.9,23.4-10.9c5.5-7,8.6-17.9,8.6-31.2c0-13.3-3.1-23.4-8.6-30.4c-5.5-7-13.3-10.1-22.6-10.1c-10.1,0-17.9,3.9-24.2,10.9C531.7,668.8,528.6,678.9,528.6,692.1L528.6,692.1z"/></g>
</svg>