<?xml version="1.0" encoding="UTF-8" standalone="no"?>
<!-- Created with Inkscape (http://www.inkscape.org/) -->

<svg
   version="1.1"
   id="svg9"
   width="40"
   height="40"
   viewBox="0 0 40 40"
   sodipodi:docname="B_Body-Battery.svg"
   inkscape:version="1.1.2 (b8e25be833, 2022-02-05)"
   xmlns:inkscape="http://www.inkscape.org/namespaces/inkscape"
   xmlns:sodipodi="http://sodipodi.sourceforge.net/DTD/sodipodi-0.dtd"
   xmlns="http://www.w3.org/2000/svg"
   xmlns:svg="http://www.w3.org/2000/svg">
  <defs
     id="defs13" />
  <sodipodi:namedview
     id="namedview11"
     pagecolor="#ffffff"
     bordercolor="#666666"
     borderopacity="1.0"
     inkscape:pageshadow="2"
     inkscape:pageopacity="0.0"
     inkscape:pagecheckerboard="0"
     showgrid="false"
     width="40px"
     inkscape:zoom="5.36"
     inkscape:cx="-13.526119"
     inkscape:cy="50"
     inkscape:window-width="1920"
     inkscape:window-height="1057"
     inkscape:window-x="1358"
     inkscape:window-y="-8"
     inkscape:window-maximized="1"
     inkscape:current-layer="g15" />
  <g
     inkscape:groupmode="layer"
     inkscape:label="Image"
     id="g15">
    <path
       style="fill:#000000;stroke-width:0.708023"
       d="m 6.7768024,39.494309 c -0.111986,-0.629387 -0.25579,0.396331 1.583168,-11.29234 1.9480796,-12.382265 1.6632436,-13.82129 -4.044745,-20.4345054 -6.731254,-7.798763 -5.3938461,-8.865251 2.661177,-2.122101 6.8731816,5.7537864 7.9121726,5.7537864 14.9774596,0 4.692315,-3.821299 7.459888,-5.266956 7.459888,-3.896712 0,0.724093 -6.147434,7.565071 -6.798117,7.565071 -0.331392,0 -1.691266,0.8129624 -3.021942,1.8065854 -2.851622,2.12932 -5.172207,6.316455 -5.195396,9.374284 -0.0091,1.197194 -0.333772,2.697886 -0.721541,3.334871 -0.38777,0.636986 -1.449694,4.009471 -2.359831,7.494411 -0.910138,3.484941 -1.9576496,6.861499 -2.3278026,7.503462 -0.679424,1.178336 -2.047923,1.590915 -2.212318,0.666974 z M 19.990898,39.28754 c -0.65963,-0.947135 -3.323488,-9.921102 -3.341434,-11.25658 -0.0084,-0.62176 0.756557,-0.304333 2.177246,0.903524 1.721207,1.463354 2.295564,2.668199 2.682582,5.627323 0.270851,2.070913 0.469061,4.065435 0.440466,4.432271 -0.07749,0.994151 -1.339221,1.183173 -1.95886,0.293462 z m 2.087901,-9.960987 c -7.498151,-4.056945 -7.173384,-14.791723 0.554799,-18.33816 3.136589,-1.4393694 8.893136,-1.2827684 11.860309,0.322648 7.341459,3.972163 7.341459,14.043349 0,18.015512 -3.276832,1.772962 -9.138275,1.772962 -12.415108,0 z m 8.031138,-7.673807 3.101022,-3.334872 -2.348085,-0.213879 c -2.237589,-0.203814 -2.325331,-0.321513 -1.864547,-2.501153 0.415497,-1.965424 0.278708,-2.287275 -0.972107,-2.287275 -1.360329,0 -1.763541,0.594262 -4.412336,6.502999 -0.241441,0.538587 0.319874,0.833718 1.585664,0.833718 2.145984,0 2.524271,1.151999 1.134825,3.45589 -1.394183,2.311749 0.470068,1.099337 3.775564,-2.455428 z M 11.116086,6.7600496 c -1.6427656,-1.610854 -1.5808076,-4.305722 0.130593,-5.680134 2.979645,-2.392934 7.644698,-0.553751 7.644698,3.0139 0,3.415775 -5.194399,5.196992 -7.775291,2.666234 z"
       id="path316" />
  </g>
</svg>
