<?xml version="1.0" standalone="no"?>
<!DOCTYPE svg PUBLIC "-//W3C//DTD SVG 20010904//EN"
 "http://www.w3.org/TR/2001/REC-SVG-20010904/DTD/svg10.dtd">
<svg version="1.0" xmlns="http://www.w3.org/2000/svg"
 width="53.000000pt" height="61.000000pt" viewBox="0 0 53.000000 61.000000"
 preserveAspectRatio="xMidYMid meet">
<rect width="100%" height="100%" fill="black"/>
<g transform="translate(0.000000,61.000000) scale(0.100000,-0.100000)"
fill="white" stroke="none">
<path d="M0 305 l0 -305 265 0 265 0 0 305 0 305 -265 0 -265 0 0 -305z m310
240 c46 -24 70 -62 70 -111 0 -36 -6 -51 -34 -82 -31 -34 -39 -37 -86 -37 -47
0 -55 3 -86 37 -57 63 -45 143 30 189 37 23 67 24 106 4z m58 -289 c41 -21 58
-45 86 -120 14 -37 26 -70 26 -72 0 -2 -99 -4 -221 -4 -173 0 -220 3 -216 13
2 6 13 38 23 70 13 41 29 68 56 93 37 33 40 34 129 34 57 0 100 -5 117 -14z"/>
<path d="M211 474 c-38 -56 -39 -64 -2 -64 28 0 29 -1 21 -31 -5 -18 -7 -36
-3 -42 6 -10 113 99 113 115 0 4 -12 8 -26 8 -19 0 -25 4 -20 15 3 8 9 22 12
30 5 12 -2 15 -29 15 -31 0 -40 -6 -66 -46z"/>
</g>
</svg>
