<?xml version="1.0" encoding="UTF-8" standalone="no"?>
<!-- Generator: Adobe Illustrator 16.0.0, SVG Export Plug-In . SVG Version: 6.00 Build 0)  -->

<svg
   version="1.1"
   id="Capa_1"
   x="0px"
   y="0px"
   width="40"
   height="40"
   viewBox="0 0 39.999999 39.999999"
   xml:space="preserve"
   sodipodi:docname="48_Steps.svg"
   inkscape:version="1.1.2 (b8e25be833, 2022-02-05)"
   xmlns:inkscape="http://www.inkscape.org/namespaces/inkscape"
   xmlns:sodipodi="http://sodipodi.sourceforge.net/DTD/sodipodi-0.dtd"
   xmlns="http://www.w3.org/2000/svg"
   xmlns:svg="http://www.w3.org/2000/svg"><defs
   id="defs1187" /><sodipodi:namedview
   id="namedview1185"
   pagecolor="#ffffff"
   bordercolor="#666666"
   borderopacity="1.0"
   inkscape:pageshadow="2"
   inkscape:pageopacity="0.0"
   inkscape:pagecheckerboard="0"
   showgrid="false"
   width="40px"
   inkscape:zoom="1.0844724"
   inkscape:cx="257.729"
   inkscape:cy="257.729"
   inkscape:window-width="1282"
   inkscape:window-height="768"
   inkscape:window-x="1541"
   inkscape:window-y="91"
   inkscape:window-maximized="0"
   inkscape:current-layer="Capa_1" />
<g
   id="g1152"
   transform="matrix(0.10748356,0,0,0.07760084,-7.7016873,1.1149443e-4)">
	<path
   d="m 298.794,386.711 c 27.805,9.522 52.357,15.587 87.633,26.427 -13.552,171.236 -175.475,103.233 -87.633,-26.427 z M 443.366,229.409 c -1.826,-51.415 -10.882,-118.86 -83.017,-108.292 -33.815,8.825 -58.8,45.962 -70.551,110.035 -6.454,35.229 -2.701,84.678 4.912,114.32 6.951,20.889 4.587,19.605 12.058,23.572 28.916,6.514 57.542,13.725 86.693,21.078 29.614,-20.913 53.936,-131.94 49.905,-160.713 z m -222.614,-3.946 c 7.607,-29.646 11.36,-79.095 4.909,-114.32 C 213.919,47.067 188.931,9.924 155.11,1.105 82.975,-9.463 73.919,57.981 72.093,109.399 c -4.031,28.768 20.294,139.802 49.911,160.711 29.149,-7.353 57.771,-14.558 86.696,-21.078 7.462,-3.963 5.098,-2.68 12.052,-23.569 z m -91.723,67.669 c 13.547,171.234 175.47,103.231 87.63,-26.427 -27.805,9.523 -52.355,15.587 -87.63,26.427 z"
   id="path1150" />
</g>
<g
   id="g1154">
</g>
<g
   id="g1156">
</g>
<g
   id="g1158">
</g>
<g
   id="g1160">
</g>
<g
   id="g1162">
</g>
<g
   id="g1164">
</g>
<g
   id="g1166">
</g>
<g
   id="g1168">
</g>
<g
   id="g1170">
</g>
<g
   id="g1172">
</g>
<g
   id="g1174">
</g>
<g
   id="g1176">
</g>
<g
   id="g1178">
</g>
<g
   id="g1180">
</g>
<g
   id="g1182">
</g>
</svg>
