<?xml version="1.0" encoding="UTF-8" standalone="no"?>
<!-- Svg Vector Icons : http://www.onlinewebfonts.com/icon -->

<svg
   version="1.1"
   x="0px"
   y="0px"
   viewBox="0 0 40 40"
   enable-background="new 0 0 1000 1000"
   xml:space="preserve"
   id="svg1051"
   sodipodi:docname="49_Floors.svg"
   width="40"
   height="40"
   inkscape:version="1.1.2 (b8e25be833, 2022-02-05)"
   xmlns:inkscape="http://www.inkscape.org/namespaces/inkscape"
   xmlns:sodipodi="http://sodipodi.sourceforge.net/DTD/sodipodi-0.dtd"
   xmlns="http://www.w3.org/2000/svg"
   xmlns:svg="http://www.w3.org/2000/svg"><defs
   id="defs1055" /><sodipodi:namedview
   id="namedview1053"
   pagecolor="#ffffff"
   bordercolor="#666666"
   borderopacity="1.0"
   inkscape:pageshadow="2"
   inkscape:pageopacity="0.0"
   inkscape:pagecheckerboard="0"
   showgrid="false"
   width="40px"
   inkscape:zoom="0.559"
   inkscape:cx="500"
   inkscape:cy="500"
   inkscape:window-width="1282"
   inkscape:window-height="768"
   inkscape:window-x="1481"
   inkscape:window-y="96"
   inkscape:window-maximized="0"
   inkscape:current-layer="svg1051" />
<metadata
   id="metadata1041"> Svg Vector Icons : http://www.onlinewebfonts.com/icon </metadata>
<g
   id="g1049"
   transform="matrix(0.04081656,0,0,0.04623686,-0.40808794,-3.1181941)"><g
     transform="matrix(0.1,0,0,-0.1,0,511)"
     id="g1047"><path
       d="m 1447.1,4412.4 c -114.9,-33.8 -187,-137.4 -187,-270.4 0,-94.6 11.3,-123.9 76.6,-196 l 76.6,-83.4 863,-6.8 863,-6.8 L 1638.7,2346.1 C 500.8,1205.9 133.5,825.1 113.2,764.3 63.6,608.8 158.3,446.6 318.3,401.5 c 72.1,-18 103.6,-13.5 182.5,22.5 67.6,31.6 495.7,443.9 1570.5,1521 l 1475.9,1478.2 11.3,-858.5 11.3,-858.5 83.4,-76.6 c 69.8,-63.1 103.6,-76.6 182.5,-76.6 126.2,0 243.4,74.4 279.4,180.3 20.3,56.3 27,410.1 27,1273.1 2.3,1153.7 0,1196.5 -42.8,1268.6 -24.8,40.6 -76.6,92.4 -117.2,117.2 -72.1,42.8 -114.9,45.1 -1268.6,42.8 -655.7,-0.1 -1225.8,-11.4 -1266.4,-22.6 z"
       id="path1043" /><path
       d="m 7159.2,3229.4 c -130.7,-69.8 -130.7,-67.6 -130.7,-1214.5 V 967.1 H 5976.3 C 4957.8,967.1 4919.5,964.8 4847.4,922 4707.7,836.4 4707.7,827.4 4707.7,-303.8 V -1329 l -1052.3,-6.8 c -991.5,-6.8 -1059,-9 -1117.6,-49.6 -130.7,-87.9 -128.4,-76.6 -128.4,-1219 V -3652.2 H 1361.5 c -1142.4,0 -1133.4,0 -1216.8,-128.4 -47.3,-72.1 -54.1,-220.8 -13.5,-295.2 15.8,-29.3 60.8,-72.1 99.1,-94.6 69.9,-42.8 123.9,-45.1 1306.9,-45.1 1354.2,0 1329.4,-2.2 1401.6,135.2 29.3,56.3 33.8,220.8 33.8,1115.4 v 1047.8 h 1054.5 c 1016.3,0 1054.6,2.2 1126.7,45.1 139.7,85.6 139.7,94.6 139.7,1225.8 V 379 l 1054.5,6.8 c 989.2,6.8 1056.8,9 1115.4,49.6 130.7,87.9 128.4,76.6 128.4,1219 v 1047.8 h 1047.8 c 872,0 1061.3,4.5 1113.1,31.5 175.8,92.4 198.3,344.8 45.1,473.2 l -69.9,58.6 H 8475.2 c -1065.8,-2.3 -1264.1,-6.8 -1316,-36.1 z"
       id="path1045" /></g></g>
</svg>
