<svg id="svg" xmlns="http://www.w3.org/2000/svg" xmlns:xlink="http://www.w3.org/1999/xlink" width="400" height="400" viewBox="0, 0, 400,400"><g id="svgg"><path id="path0" d="M233.333 72.940 C 233.333 76.390,236.333 81.067,240.000 83.333 C 265.353 99.002,213.883 134.134,182.960 122.267 C 173.230 118.534,171.892 120.434,175.238 133.230 C 177.464 141.744,174.947 157.101,169.643 167.357 C 146.257 212.581,163.776 281.828,205.834 310.407 C 292.322 369.178,398.238 269.962,354.519 171.127 C 346.557 153.127,343.508 138.619,347.206 136.333 C 357.241 130.131,347.882 120.931,334.972 124.306 C 304.518 132.270,256.486 94.558,283.756 84.094 C 289.488 81.894,292.311 77.073,290.029 73.380 C 284.783 64.891,233.333 64.492,233.333 72.940 M290.068 142.932 C 368.225 175.588,346.542 299.778,262.653 299.956 C 173.396 300.146,156.088 164.597,242.099 138.998 C 264.000 132.480,265.309 132.587,290.068 142.932 M66.667 153.333 C 66.667 157.037,84.444 160.000,106.667 160.000 C 128.889 160.000,146.667 157.037,146.667 153.333 C 146.667 149.630,128.889 146.667,106.667 146.667 C 84.444 146.667,66.667 149.630,66.667 153.333 M46.667 213.333 C 46.667 217.094,65.556 220.000,90.000 220.000 C 114.444 220.000,133.333 217.094,133.333 213.333 C 133.333 209.573,114.444 206.667,90.000 206.667 C 65.556 206.667,46.667 209.573,46.667 213.333 M260.000 216.937 C 260.000 225.854,290.068 260.000,297.920 260.000 C 311.537 260.000,308.340 250.764,287.969 231.247 C 270.204 214.228,260.000 209.007,260.000 216.937 M20.000 273.333 C 20.000 277.281,44.313 280.000,79.607 280.000 C 112.390 280.000,141.067 277.000,143.333 273.333 C 145.970 269.066,124.514 266.667,83.727 266.667 C 45.687 266.667,20.000 269.354,20.000 273.333 " stroke="none" fill="#000000" fill-rule="evenodd"></path></g></svg>