<?xml version="1.0" encoding="UTF-8" standalone="no"?>
<svg
   class="svg-icon"
   style="overflow:hidden;fill:currentColor"
   viewBox="0 0 40 40"
   version="1.1"
   id="svg19"
   sodipodi:docname="5_Notifications.svg"
   width="40"
   height="40"
   inkscape:version="1.1.2 (b8e25be833, 2022-02-05)"
   xmlns:inkscape="http://www.inkscape.org/namespaces/inkscape"
   xmlns:sodipodi="http://sodipodi.sourceforge.net/DTD/sodipodi-0.dtd"
   xmlns="http://www.w3.org/2000/svg"
   xmlns:svg="http://www.w3.org/2000/svg">
  <defs
     id="defs23" />
  <sodipodi:namedview
     id="namedview21"
     pagecolor="#ffffff"
     bordercolor="#666666"
     borderopacity="1.0"
     inkscape:pageshadow="2"
     inkscape:pageopacity="0.0"
     inkscape:pagecheckerboard="0"
     showgrid="false"
     width="40px"
     inkscape:zoom="2.0899583"
     inkscape:cx="342.35134"
     inkscape:cy="188.52051"
     inkscape:window-width="1920"
     inkscape:window-height="1046"
     inkscape:window-x="-11"
     inkscape:window-y="-11"
     inkscape:window-maximized="1"
     inkscape:current-layer="svg19" />
  <path
     d="m 13.51115,19.534883 c 0,1.302298 -0.88889,2.41859 -2.31109,2.41859 -1.24442,0 -2.3111,-1.116292 -2.3111,-2.41859 0,-1.302299 1.06663,-2.418591 2.3111,-2.418591 1.42225,0 2.31109,1.116292 2.31109,2.418591 z M 40,18.232584 C 40,8.186057 31.11109,0 20.08887,0 8.88886,0 0,8.186057 0,18.232584 0,24.186108 3.20004,29.767467 8.53329,33.116292 v 5.767467 c 0,0.55812 0.35557,0.930235 0.71105,1.116241 h 0.35558 c 0.35557,0 0.53331,0 0.71105,-0.186057 l 2.48894,-1.674463 0.17778,-0.186058 2.84442,-1.86052 c 1.42225,0.186057 2.84441,0.372114 4.26666,0.372114 11.02222,0 19.91113,-8.186057 19.91113,-18.232584 z M 10.13333,31.627936 C 5.15561,28.651225 2.13331,23.627987 2.13331,18.232584 c 0,-8.744228 8.00002,-16 17.95556,-16 9.77775,0 17.77777,7.255822 17.77777,16 0,8.744228 -8.00002,16 -17.77777,16 -1.42225,0 -2.84441,-0.186057 -4.26667,-0.372114 -0.35557,-0.186057 -0.71105,0 -0.88889,0 l -3.37773,2.41859 -0.88889,0.558121 v -4.27906 c 0,-0.372115 -0.17779,-0.744127 -0.53331,-0.930235 z M 22.75554,18.976863 c 0,1.302299 -1.06663,2.418591 -2.31109,2.418591 -1.24447,0 -2.3111,-1.116242 -2.3111,-2.418591 0,-1.488406 1.06663,-2.41859 2.3111,-2.41859 1.24441,0 2.31109,0.930235 2.31109,2.41859 z m 8.88896,0 c 0,1.302299 -0.88889,2.418591 -2.3111,2.418591 -1.24441,0 -2.31109,-1.116242 -2.31109,-2.418591 0,-1.488406 1.06663,-2.41859 2.31109,-2.41859 1.42226,0 2.3111,0.930235 2.3111,2.41859 z"
     id="path17"
     style="stroke-width:0.0495034" />
</svg>
