<?xml version="1.0" encoding="UTF-8" standalone="no"?>
<svg
   class="svg-icon"
   style="overflow:hidden;fill:currentColor"
   viewBox="0 0 40 40"
   version="1.1"
   id="svg119"
   sodipodi:docname="A_Alarm.svg"
   width="40"
   height="40"
   inkscape:version="1.1.2 (b8e25be833, 2022-02-05)"
   xmlns:inkscape="http://www.inkscape.org/namespaces/inkscape"
   xmlns:sodipodi="http://sodipodi.sourceforge.net/DTD/sodipodi-0.dtd"
   xmlns="http://www.w3.org/2000/svg"
   xmlns:svg="http://www.w3.org/2000/svg">
  <defs
     id="defs123" />
  <sodipodi:namedview
     id="namedview121"
     pagecolor="#ffffff"
     bordercolor="#666666"
     borderopacity="1.0"
     inkscape:pageshadow="2"
     inkscape:pageopacity="0.0"
     inkscape:pagecheckerboard="0"
     showgrid="false"
     width="40px"
     inkscape:zoom="0.82226562"
     inkscape:cx="467.00238"
     inkscape:cy="512"
     inkscape:window-width="1920"
     inkscape:window-height="1046"
     inkscape:window-x="-11"
     inkscape:window-y="-11"
     inkscape:window-maximized="1"
     inkscape:current-layer="svg119" />
  <path
     d="m 39.469299,31.333815 a 11.910127,9.9238931 0 0 1 -4.80032,-8.001778 V 16.665741 A 14.694313,12.243764 0 0 0 24.001599,4.906394 V 3.333148 C 24.001599,1.495472 22.206809,0 20.001329,0 c -2.20548,0 -4.00026,1.495472 -4.00026,3.333148 V 4.906394 A 14.694313,12.243764 0 0 0 5.333689,16.665741 v 6.666296 A 11.915461,9.9283373 0 0 1 0.53336901,31.333815 1.3334222,1.1110494 0 0 0 1.333419,33.333704 h 12.13414 A 6.6751117,5.5619132 0 0 0 19.998669,40 a 6.6751117,5.5619132 0 0 0 6.53377,-6.666296 h 12.13414 a 1.3334222,1.1110494 0 0 0 0.80005,-1.999889 z M 18.667909,3.333148 a 1.333425,1.1110517 0 0 1 2.66685,0 v 1.162158 a 14.688979,12.23932 0 0 0 -2.66685,0 z m 5.33369,31.109383 c 0,1.837676 -1.79479,3.333148 -4.00027,3.333148 a 4.0056004,3.3375924 0 0 1 -3.77091,-4.444197 h 7.54183 c 0.14934,0.355535 0.22935,0.73107 0.22935,1.111049 z M 4.645639,31.109383 c 0.68005,-0.686629 1.27209,-1.435476 1.75745,-2.224321 a 14.4943,12.077107 0 0 0 1.59744,-5.553025 v -6.666296 c 0,-5.513027 5.38436,-9.999445 12.0008,-9.999445 6.61644,0 12.0008,4.486418 12.0008,9.999445 v 6.666296 a 14.528969,12.105994 0 0 0 3.35489,7.777346 H 4.642979 Z"
     fill=""
     id="path117"
     style="stroke-width:0.0475456" />
</svg>
