<?xml version="1.0" standalone="no"?>
<!DOCTYPE svg PUBLIC "-//W3C//DTD SVG 20010904//EN"
 "http://www.w3.org/TR/2001/REC-SVG-20010904/DTD/svg10.dtd">
<svg version="1.0" xmlns="http://www.w3.org/2000/svg"
 width="53.000000pt" height="55.000000pt" viewBox="0 0 53.000000 55.000000"
 preserveAspectRatio="xMidYMid meet">

<g transform="translate(0.000000,55.000000) scale(0.100000,-0.100000)"
fill="#000000" stroke="none">
<path d="M204 511 c-45 -28 -64 -59 -64 -108 0 -35 6 -50 34 -81 31 -34 39
-37 86 -37 47 0 55 3 86 37 28 31 34 46 34 82 0 49 -24 87 -70 111 -39 20 -69
19 -106 -4z m102 -36 c-3 -8 -9 -22 -12 -30 -5 -11 1 -15 20 -15 14 0 26 -4
26 -8 0 -16 -107 -125 -113 -115 -4 6 -2 24 3 42 8 30 7 31 -21 31 -37 0 -36
8 2 64 26 40 35 46 66 46 27 0 34 -3 29 -15z"/>
<path d="M122 206 c-27 -25 -43 -52 -56 -93 -10 -32 -21 -64 -23 -70 -4 -10
43 -13 216 -13 122 0 221 2 221 4 0 2 -12 35 -26 72 -43 115 -71 134 -203 134
-89 0 -92 -1 -129 -34z"/>
</g>
</svg>
